<svg width="36" height="28" viewBox="0 0 36 28" fill="none" xmlns="http://www.w3.org/2000/svg">
<path d="M1.8301 27.3525C1.2876 27.3525 0.850098 26.915 0.850098 26.3725V18.76C0.850098 18.2175 1.2876 17.7625 1.8301 17.7625H2.3726C2.6001 17.7625 2.7926 17.5875 2.8101 17.36C3.3526 11.445 7.3251 6.33496 12.9076 4.35746C13.0826 4.28746 13.2051 4.12996 13.2051 3.93746V1.62746C13.2051 1.08496 13.6426 0.647461 14.2026 0.647461H21.8151C22.3576 0.647461 22.8126 1.08496 22.8126 1.62746V3.95496C22.8126 4.14746 22.9351 4.30496 23.1101 4.37496C28.7101 6.35246 32.6651 11.4625 33.2076 17.3775C33.2251 17.605 33.4176 17.78 33.6451 17.78H34.1876C34.7301 17.78 35.1851 18.2175 35.1851 18.7775V26.39C35.1851 26.9325 34.7476 27.37 34.1876 27.37H1.8301V27.3525ZM3.2651 19.74C3.0201 19.74 2.8276 19.9325 2.8276 20.1775V24.9375C2.8276 25.1825 3.0201 25.375 3.2651 25.375H32.7526C32.9976 25.375 33.1901 25.1825 33.1901 24.9375V20.1775C33.1901 19.9325 32.9976 19.74 32.7526 19.74H3.2651ZM23.2326 6.57996C23.1451 6.57996 23.0751 6.59746 22.9876 6.64996C22.8651 6.73746 22.7951 6.85996 22.7951 7.01746V17.325C22.7951 17.57 22.9876 17.7625 23.2326 17.7625H30.7576C30.8801 17.7625 31.0026 17.71 31.0901 17.6225C31.1776 17.535 31.2126 17.4125 31.1951 17.2725C30.6701 12.6175 27.6951 8.52246 23.4076 6.61496C23.3551 6.59746 23.2851 6.57996 23.2326 6.57996ZM15.6201 2.62496C15.3751 2.62496 15.1826 2.81746 15.1826 3.06246V17.325C15.1826 17.57 15.3751 17.7625 15.6201 17.7625H20.3801C20.6251 17.7625 20.8176 17.57 20.8176 17.325V3.06246C20.8176 2.81746 20.6251 2.62496 20.3801 2.62496H15.6201ZM12.7676 6.57996C12.7151 6.57996 12.6451 6.59746 12.5926 6.61496C8.3051 8.52246 5.3301 12.6175 4.8051 17.2725C4.7876 17.395 4.8226 17.5175 4.9101 17.6225C4.9976 17.71 5.1201 17.7625 5.2426 17.7625H12.7676C13.0126 17.7625 13.2051 17.57 13.2051 17.325V7.01746C13.2051 6.87746 13.1351 6.73746 13.0126 6.64996C12.9426 6.61496 12.8551 6.57996 12.7676 6.57996Z" fill="#21A037"/>
</svg>
