<svg width="37" height="37" viewBox="0 0 37 37" fill="none" xmlns="http://www.w3.org/2000/svg">
<path d="M22.2176 20.0676C23.1276 20.2776 24.1601 19.9626 24.8776 19.2276L35.1676 8.9376C36.2876 7.8176 36.2876 6.0151 35.1676 4.8951L32.0876 1.8151C30.9676 0.695098 29.1651 0.695098 28.0451 1.8151L17.7551 12.1051C17.0376 12.8226 16.7051 13.8551 16.9151 14.7651C17.1076 15.6051 16.6526 16.2701 16.2326 16.6901L16.1801 16.7426C15.4976 16.2701 14.5351 16.3401 13.9226 16.9526C13.2401 17.6351 13.2401 18.7726 13.9226 19.4551L15.2351 20.7676L4.91008 31.0926C4.63008 30.8301 4.24508 30.7076 3.86008 30.7251C3.45758 30.7601 3.07258 30.9526 2.82758 31.2851L0.255077 34.7151C0.0450775 34.9776 0.0800774 35.3626 0.325077 35.6076L1.35758 36.6401C1.60258 36.8851 1.97008 36.9026 2.25008 36.7101L5.68008 34.1376C6.01258 33.8926 6.20508 33.5251 6.24008 33.1051C6.27508 32.7201 6.13508 32.3526 5.87258 32.0551L16.1976 21.7301L17.5101 23.0426C18.1926 23.7251 19.3301 23.7251 20.0126 23.0426C20.6251 22.4301 20.6951 21.4676 20.2226 20.7851L20.2926 20.7501C20.7126 20.3301 21.3776 19.8751 22.2176 20.0676ZM4.87508 33.0526L1.91758 35.2751L1.72508 35.0826L3.94758 32.1251C3.94758 32.1251 3.96508 32.1076 3.98258 32.1076C4.00008 32.1076 4.01758 32.1251 4.01758 32.1251L4.89258 33.0001C4.89258 33.0001 4.91008 33.0176 4.91008 33.0351C4.89258 33.0351 4.89258 33.0526 4.87508 33.0526ZM18.2451 14.4851C18.1401 14.0126 18.3151 13.4876 18.7176 13.0851L29.0076 2.7951C29.5851 2.2176 30.5476 2.2176 31.1251 2.7951L34.2051 5.8751C34.7826 6.4526 34.7826 7.4151 34.2051 7.9926L23.9151 18.2826C23.5126 18.6851 22.9876 18.8601 22.5151 18.7551C21.3776 18.4926 20.2576 18.8601 19.3301 19.7876L19.2951 19.8226L17.1776 17.7051L17.2126 17.6701C18.1401 16.7426 18.5076 15.6051 18.2451 14.4851ZM18.4901 22.0976L14.9026 18.5101C14.7451 18.3526 14.7451 18.0901 14.9026 17.9326C15.0601 17.7751 15.3226 17.7751 15.4801 17.9326L19.0676 21.5201C19.2251 21.6776 19.2251 21.9401 19.0676 22.0976C18.9101 22.2551 18.6651 22.2551 18.4901 22.0976Z" fill="#21A037"/>
<path d="M20.3626 14.5902C20.6251 14.8527 21.0626 14.8527 21.3251 14.5902L30.0401 5.8752C30.3026 5.6127 30.3026 5.1752 30.0401 4.9127C29.7776 4.6502 29.3401 4.6502 29.0776 4.9127L20.3626 13.6277C20.1001 13.8902 20.1001 14.3277 20.3626 14.5902Z" fill="#21A037"/>
<path d="M22.41 16.6376C22.6725 16.9001 23.11 16.9001 23.3725 16.6376L32.0875 7.92256C32.35 7.66006 32.35 7.22256 32.0875 6.96006C31.825 6.69756 31.3875 6.69756 31.125 6.96006L22.41 15.6751C22.1475 15.9551 22.1475 16.3751 22.41 16.6376Z" fill="#21A037"/>
</svg>
