<svg width="40" height="36" viewBox="0 0 40 36" fill="none" xmlns="http://www.w3.org/2000/svg">
<path d="M39.0225 12.5925H37.535H33.65C35.225 10.7025 35.8725 8.79499 35.5575 6.86999C34.91 2.84499 30.22 0.447488 30.01 0.342488C29.6425 0.167488 29.1875 0.307488 29.0125 0.674988C28.82 1.04249 28.9775 1.49749 29.345 1.67249C29.345 1.67249 29.38 1.68999 29.415 1.70749L27.875 3.26499C26.9825 2.58249 25.8975 2.21499 24.7425 2.21499C23.3425 2.21499 22.03 2.75749 21.05 3.73749C20.7525 4.03499 20.7525 4.50749 21.05 4.78749L27.385 11.1225C27.525 11.2625 27.7175 11.3325 27.91 11.3325C28.1025 11.3325 28.295 11.2625 28.435 11.1225C29.415 10.1425 29.9575 8.82999 29.9575 7.42999C29.9575 6.29249 29.59 5.20749 28.9075 4.29749L30.6925 2.51249C31.97 3.42249 33.7375 5.03249 34.07 7.09749C34.35 8.81249 33.5625 10.5975 31.76 12.4175C31.7075 12.47 31.69 12.5225 31.655 12.575H18.11H15.135H5.43996H1.71246C1.29246 12.575 0.959961 12.9075 0.959961 13.3275V29.7425V32.735V35.7275H2.44746V33.4875H5.43996H18.1275C18.5475 33.4875 18.88 33.155 18.88 32.735V14.08H37.535V35.7275H39.0225V14.08H39.04L39.0225 12.5925ZM27.875 9.51249L22.695 4.33249C23.3075 3.92999 24.0075 3.71999 24.76 3.71999C25.495 3.71999 26.2125 3.92999 26.825 4.33249L26.79 4.36749L27.84 5.41749L27.875 5.39999C28.2775 6.01249 28.4875 6.71249 28.4875 7.46499C28.4875 8.19999 28.2775 8.89999 27.875 9.51249ZM4.68746 32H2.44746V29.76V14.08H4.68746V32ZM17.375 32H6.17496V14.08H15.135H17.375V32Z" fill="#21A037"/>
</svg>
