<svg width="42" height="22" viewBox="0 0 42 22" fill="none" xmlns="http://www.w3.org/2000/svg">
<path d="M6.755 21.185C3.2725 21.185 0.4375 18.35 0.4375 14.8675V7.13249C0.4375 3.64999 3.2725 0.797485 6.755 0.797485H35.2275C38.71 0.797485 41.5625 3.63249 41.5625 7.13249V14.85C41.5625 18.3325 38.7275 21.1675 35.2275 21.1675H6.755V21.185ZM9.135 16.53C8.89 16.53 8.6975 16.7225 8.6975 16.9675V19.05C8.6975 19.295 8.89 19.4875 9.135 19.4875H32.865C33.11 19.4875 33.3025 19.295 33.3025 19.05V16.9675C33.3025 16.7225 33.11 16.53 32.865 16.53H9.135ZM34.1425 14.8325C34.615 14.8325 34.9825 15.2175 34.9825 15.6725V19.0325C34.9825 19.155 35.035 19.26 35.1225 19.3475C35.21 19.4175 35.315 19.47 35.42 19.47H35.4375C37.905 19.3475 39.8475 17.3175 39.8475 14.85V8.63748C39.8475 8.39248 39.655 8.19998 39.41 8.19998H2.5725C2.3275 8.19998 2.135 8.39248 2.135 8.63748V14.85C2.135 17.335 4.0775 19.365 6.545 19.47H6.5625C6.6675 19.47 6.79 19.435 6.86 19.3475C6.9475 19.2775 7 19.1725 7 19.05V15.69C7 15.2175 7.385 14.85 7.84 14.85H34.1425V14.8325ZM6.755 2.51249C4.655 2.51249 2.8175 3.92999 2.275 5.95998C2.24 6.09999 2.275 6.22249 2.345 6.34499C2.4325 6.44999 2.555 6.51998 2.695 6.51998H39.27C39.41 6.51998 39.5325 6.44999 39.62 6.34499C39.7075 6.23999 39.725 6.09999 39.69 5.95998C39.165 3.92999 37.31 2.51249 35.21 2.51249H6.755Z" fill="#21A037"/>
<path d="M30.59 12.505C30.1175 12.505 29.75 12.12 29.75 11.665C29.75 11.1925 30.135 10.8075 30.59 10.8075C31.0625 10.8075 31.4475 11.1925 31.4475 11.665C31.4475 12.12 31.0625 12.505 30.59 12.505Z" fill="#21A037"/>
<path d="M35.2277 12.505C34.7552 12.505 34.3877 12.12 34.3877 11.665C34.3877 11.1925 34.7727 10.8075 35.2277 10.8075C35.7002 10.8075 36.0677 11.1925 36.0677 11.665C36.0677 12.12 35.7002 12.505 35.2277 12.505Z" fill="#21A037"/>
</svg>
