<svg width="40" height="34" viewBox="0 0 40 34" fill="none" xmlns="http://www.w3.org/2000/svg">
<path d="M1.76504 33.59C1.64254 33.59 1.50254 33.555 1.39754 33.5025C1.13504 33.3625 0.977539 33.1 0.977539 32.82V23.09C0.977539 22.81 1.13504 22.5475 1.38004 22.4075C1.50254 22.3375 1.62504 22.32 1.74754 22.32C1.90504 22.32 2.04504 22.3725 2.18504 22.46L5.82504 24.8925C6.03504 25.0325 6.17504 25.2775 6.17504 25.54V26.7475C6.17504 26.9925 6.36754 27.185 6.61254 27.185H12.685C14.9425 27.185 16.78 25.3475 16.78 23.09V20.6575C16.78 20.4125 16.5875 20.22 16.3425 20.22H15.1175C14.8725 20.22 14.645 20.0975 14.4875 19.905L11.1975 15.53C11.11 15.425 10.9875 15.355 10.8475 15.355H1.76504C1.32754 15.355 0.977539 15.005 0.977539 14.5675V1.17999C0.977539 0.742487 1.32754 0.392487 1.76504 0.392487H35.82C36.065 0.392487 36.2925 0.497487 36.4325 0.689987C36.5725 0.882487 36.625 1.12749 36.5725 1.37249L36.3275 2.26499C36.2925 2.40499 36.3275 2.54499 36.3975 2.64999C36.485 2.75499 36.6075 2.82499 36.7475 2.82499H38.2525C38.69 2.82499 39.04 3.17499 39.04 3.61249V10.91C39.04 11.3475 38.69 11.6975 38.2525 11.6975H34.0875C33.895 11.6975 33.72 11.8375 33.6675 12.0125L32.915 14.76C32.8275 15.0925 32.5125 15.3375 32.1625 15.3375H24.2525C24.1125 15.3375 23.99 15.4075 23.9025 15.5125L20.6125 19.8875C20.4725 20.08 20.2275 20.2025 19.9825 20.2025H18.7575C18.5125 20.2025 18.32 20.395 18.32 20.64V23.0725C18.32 26.1875 15.7825 28.725 12.6675 28.725H6.63004C6.38504 28.725 6.19254 28.9175 6.19254 29.1625V30.37C6.19254 30.6325 6.07004 30.8775 5.84254 31.0175L2.20254 33.45C2.06254 33.5375 1.90504 33.59 1.76504 33.59ZM2.97254 24.91C2.90254 24.91 2.83254 24.9275 2.76254 24.9625C2.62254 25.0325 2.53504 25.19 2.53504 25.3475V30.5275C2.53504 30.685 2.62254 30.8425 2.76254 30.9125C2.83254 30.9475 2.90254 30.965 2.97254 30.965C3.06004 30.965 3.14754 30.9475 3.21754 30.895L4.42504 30.09C4.54754 30.0025 4.61754 29.88 4.61754 29.7225V26.1525C4.61754 26.0125 4.54754 25.8725 4.42504 25.785L3.21754 24.98C3.14754 24.945 3.06004 24.91 2.97254 24.91ZM13.9275 15.3375C13.77 15.3375 13.6125 15.425 13.5425 15.5825C13.4725 15.7225 13.49 15.915 13.5775 16.0375L15.3975 18.47C15.485 18.575 15.6075 18.645 15.7475 18.645H19.3875C19.5275 18.645 19.65 18.575 19.7375 18.47L21.5575 16.0375C21.6625 15.8975 21.68 15.7225 21.5925 15.5825C21.5225 15.4425 21.365 15.3375 21.2075 15.3375H13.9275ZM2.97254 1.96749C2.72754 1.96749 2.53504 2.15999 2.53504 2.40499V13.3425C2.53504 13.5875 2.72754 13.78 2.97254 13.78H31.235C31.4275 13.78 31.6025 13.64 31.655 13.465L34.6475 2.52749C34.6825 2.38749 34.6475 2.24749 34.5775 2.14249C34.49 2.03749 34.3675 1.96749 34.2275 1.96749H2.97254ZM36.0825 4.39999C35.89 4.39999 35.715 4.53999 35.6625 4.71499L34.3325 9.57999C34.2975 9.71999 34.3325 9.85999 34.4025 9.96499C34.49 10.07 34.6125 10.14 34.7525 10.14H37.0275C37.2725 10.14 37.465 9.94749 37.465 9.70249V4.83749C37.465 4.59249 37.2725 4.39999 37.0275 4.39999H36.0825Z" fill="#21A037"/>
</svg>
