<svg width="34" height="42" viewBox="0 0 34 42" fill="none" xmlns="http://www.w3.org/2000/svg">
<path d="M32.9077 22.1025H30.9127V21C30.9127 20.6325 30.6152 20.335 30.2477 20.335H25.9952C25.2952 20.335 24.7177 19.7575 24.7177 19.0575V12.8275H27.2902C27.6577 12.8275 27.9552 12.53 27.9552 12.1625V8.995C27.9552 8.6275 27.6577 8.33 27.2902 8.33H25.0502C24.4902 6.79 23.4752 5.425 22.1452 4.4275C21.3052 3.7975 20.3952 3.3425 19.4152 3.045V0.665C19.4152 0.2975 19.1177 0 18.7502 0H15.2152C14.8477 0 14.5502 0.2975 14.5502 0.665V3.045C13.5877 3.325 12.6602 3.7975 11.8377 4.4275C10.5252 5.4075 9.51023 6.79 8.93273 8.33H6.69274C6.32523 8.33 6.02773 8.6275 6.02773 8.995V12.1625C6.02773 12.53 6.32523 12.8275 6.69274 12.8275H9.26523V19.0575C9.26523 19.7575 8.68773 20.335 7.98773 20.335H3.73523C3.36773 20.335 3.07023 20.6325 3.07023 21V22.1025H1.09273C0.725235 22.1025 0.427734 22.4 0.427734 22.7675V28.07C0.427734 28.4375 0.725235 28.735 1.09273 28.735H3.08773V29.8375C3.08773 30.205 3.38523 30.5025 3.75273 30.5025H8.00523C8.70523 30.5025 9.28274 31.08 9.28274 31.78V38.01H6.39524C6.02773 38.01 5.73023 38.3075 5.73023 38.675V41.335C5.73023 41.7025 6.02773 42 6.39524 42H27.6227C27.9902 42 28.2877 41.7025 28.2877 41.335V38.675C28.2877 38.3075 27.9902 38.01 27.6227 38.01H24.7527V31.78C24.7527 31.08 25.3302 30.5025 26.0302 30.5025H30.2827C30.6502 30.5025 30.9477 30.205 30.9477 29.8375V28.735H32.9427C33.3102 28.735 33.6077 28.4375 33.6077 28.07V22.7675C33.5727 22.4 33.2752 22.1025 32.9077 22.1025ZM15.8977 1.33H18.1027V2.765C17.7352 2.7125 17.3677 2.695 17.0002 2.695C16.6327 2.695 16.2652 2.7125 15.8977 2.765V1.33ZM17.0002 4.025C19.8702 4.025 22.4777 5.7575 23.6327 8.33H10.3677C11.5227 5.7575 14.1302 4.025 17.0002 4.025ZM7.35773 9.6425H26.6427V11.48H7.35773V9.6425ZM1.74023 27.405V23.4325H3.07023V27.405H1.74023ZM4.40023 21.665H6.60523V29.1725H4.40023V21.665ZM26.9402 40.67H7.06024V39.34H26.9577L26.9402 40.67ZM23.4052 31.78V38.01H10.5952V31.78C10.5952 30.345 9.42273 29.1725 7.98773 29.1725H7.93524V21.665H7.98773C9.42273 21.665 10.5952 20.4925 10.5952 19.0575V12.8275H23.4227V19.0575C23.4227 20.4925 24.5952 21.665 26.0302 21.665H26.0827V29.1725H26.0302C24.5777 29.1725 23.4052 30.345 23.4052 31.78ZM29.6002 29.1725H27.3952V21.665H29.6002V29.1725ZM32.2602 27.405H30.9302V23.4325H32.2602V27.405Z" fill="#21A037"/>
<path d="M17.0002 19.46C13.7102 19.46 11.0327 22.1375 11.0327 25.4275C11.0327 28.7175 13.7102 31.395 17.0002 31.395C20.2902 31.395 22.9677 28.7175 22.9677 25.4275C22.9677 22.1375 20.2902 19.46 17.0002 19.46ZM17.0002 30.065C14.4452 30.065 12.3627 27.9825 12.3627 25.4275C12.3627 22.8725 14.4452 20.79 17.0002 20.79C19.5552 20.79 21.6377 22.8725 21.6377 25.4275C21.6377 27.9825 19.5552 30.065 17.0002 30.065Z" fill="#21A037"/>
<path d="M17.0004 22.995C15.6529 22.995 14.5679 24.08 14.5679 25.4275C14.5679 26.775 15.6529 27.86 17.0004 27.86C18.3479 27.86 19.4329 26.775 19.4329 25.4275C19.4329 24.08 18.3479 22.995 17.0004 22.995ZM17.0004 26.53C16.3879 26.53 15.8979 26.04 15.8979 25.4275C15.8979 24.815 16.3879 24.325 17.0004 24.325C17.6129 24.325 18.1029 24.815 18.1029 25.4275C18.1029 26.04 17.6129 26.53 17.0004 26.53Z" fill="#21A037"/>
</svg>
