<svg width="27" height="38" viewBox="0 0 27 38" fill="none" xmlns="http://www.w3.org/2000/svg">
<path d="M2.95002 37.2701C2.39002 37.2701 1.81252 37.0951 1.28752 36.7451C0.132521 35.9576 -0.304979 34.5401 0.220021 33.2451L6.59002 21.2576C6.64252 21.1526 6.60752 21.0651 6.59002 21.0126C6.55502 20.9601 6.50252 20.8901 6.38002 20.8901H2.95002C1.97002 20.8901 1.06002 20.4001 0.517521 19.5776C-0.0249789 18.7551 -0.112479 17.7226 0.272521 16.8126L6.41502 2.4976C6.85252 1.4301 7.92002 0.730103 9.07502 0.730103H19.295C20.275 0.730103 21.185 1.2201 21.7275 2.0426C22.27 2.8651 22.3575 3.8976 21.9725 4.8076L18.6125 12.6651C18.56 12.7701 18.595 12.8401 18.63 12.8926C18.665 12.9276 18.7175 12.9976 18.84 12.9976H23.39C24.6325 12.9976 25.7 13.7501 26.1375 14.9051C26.575 16.0601 26.2425 17.3376 25.2975 18.1426L15.2 26.7876L4.94502 36.4651C4.38502 36.9901 3.66752 37.2701 2.95002 37.2701ZM9.07502 2.4801C8.60252 2.4801 8.18252 2.7601 8.00752 3.1976L1.86502 17.5126C1.70752 17.8801 1.74252 18.2826 1.97002 18.6151C2.19752 18.9476 2.54752 19.1401 2.95002 19.1401H6.38002C7.08002 19.1401 7.72752 19.5076 8.09502 20.1026C8.46252 20.7151 8.48002 21.4326 8.14752 22.0626L1.83002 33.9626C1.60252 34.5226 1.91752 35.0301 2.30252 35.2751C2.68752 35.5376 3.26502 35.6426 3.77252 35.1526L14.045 25.4576L24.1775 16.7776C24.755 16.2876 24.58 15.6576 24.51 15.4826C24.44 15.3076 24.16 14.7126 23.4075 14.7126H18.8575C18.1925 14.7126 17.5625 14.3801 17.195 13.8201C16.8275 13.2601 16.7575 12.5601 17.0375 11.9301L20.3975 4.0726C20.555 3.7051 20.52 3.3026 20.2925 2.9701C20.065 2.6376 19.715 2.4451 19.3125 2.4451H9.07502V2.4801Z" fill="#21A037"/>
</svg>
