<svg width="37" height="14" viewBox="0 0 37 14" fill="none" xmlns="http://www.w3.org/2000/svg">
<path d="M34.345 2.5025C34.415 2.5025 34.485 2.5725 34.485 2.6425V11.3575C34.485 11.4275 34.415 11.4975 34.345 11.4975H1.65501C1.58501 11.4975 1.51501 11.4275 1.51501 11.3575V2.6425C1.51501 2.5725 1.58501 2.5025 1.65501 2.5025H34.345ZM34.345 0.997498H1.65501C0.74501 0.997498 0.0100098 1.7325 0.0100098 2.6425V11.3575C0.0100098 12.2675 0.74501 13.0025 1.65501 13.0025H34.3625C35.2725 13.0025 36.0075 12.2675 36.0075 11.3575V2.6425C35.99 1.7325 35.255 0.997498 34.345 0.997498Z" fill="#21A037"/>
<path d="M8.60253 7.875L6.74753 7L8.60253 6.125C8.72503 6.0725 8.84753 5.985 8.84753 5.7925C8.84753 5.6 8.69003 5.4075 8.48003 5.4075C8.37503 5.4075 8.30503 5.4425 8.20003 5.5125L6.57253 6.6325L6.71253 4.6725C6.73003 4.4625 6.57253 4.27 6.34503 4.27C6.11753 4.27 5.96003 4.445 5.97753 4.6725L6.11753 6.6325L4.49003 5.5125C4.38503 5.4425 4.33253 5.4075 4.21003 5.4075C4.01753 5.425 3.84253 5.5825 3.84253 5.7925C3.84253 5.95 3.94753 6.055 4.08753 6.125L5.96003 7L4.10503 7.875C3.98253 7.9275 3.86003 8.05 3.86003 8.2075C3.86003 8.4 4.01753 8.5925 4.22753 8.5925C4.33253 8.5925 4.40253 8.5575 4.50753 8.4875L6.13503 7.3675L5.99503 9.3275C5.97753 9.5375 6.13503 9.73 6.36253 9.73C6.59003 9.73 6.74753 9.555 6.73003 9.3275L6.59003 7.3675L8.21753 8.4875C8.32253 8.5575 8.39253 8.5925 8.49753 8.5925C8.69003 8.5925 8.86503 8.4175 8.86503 8.2075C8.84753 8.0325 8.72503 7.9275 8.60253 7.875Z" fill="#21A037"/>
<path d="M19.3125 7.875L17.4575 7L19.3125 6.125C19.435 6.0725 19.5575 5.985 19.5575 5.7925C19.5575 5.6 19.4 5.4075 19.19 5.4075C19.085 5.4075 19.015 5.4425 18.91 5.5125L17.2825 6.6325L17.4225 4.6725C17.44 4.4625 17.2825 4.27 17.055 4.27C16.8275 4.27 16.67 4.445 16.6875 4.6725L16.8275 6.6325L15.2 5.5125C15.095 5.4425 15.0425 5.4075 14.92 5.4075C14.7275 5.425 14.5525 5.5825 14.5525 5.7925C14.5525 5.95 14.6575 6.055 14.7975 6.125L16.6525 7L14.7975 7.875C14.675 7.9275 14.5525 8.05 14.5525 8.2075C14.5525 8.4 14.71 8.5925 14.92 8.5925C15.025 8.5925 15.095 8.5575 15.2 8.4875L16.8275 7.3675L16.6875 9.3275C16.67 9.5375 16.8275 9.73 17.055 9.73C17.2825 9.73 17.44 9.555 17.4225 9.3275L17.2825 7.3675L18.91 8.4875C19.015 8.5575 19.085 8.5925 19.19 8.5925C19.3825 8.5925 19.5575 8.4175 19.5575 8.2075C19.575 8.0325 19.435 7.9275 19.3125 7.875Z" fill="#21A037"/>
<path d="M30.04 7.875L28.185 7L30.04 6.125C30.1625 6.0725 30.285 5.985 30.285 5.7925C30.285 5.6 30.1275 5.4075 29.9175 5.4075C29.8125 5.4075 29.7425 5.4425 29.6375 5.5125L28.01 6.6325L28.15 4.6725C28.1675 4.4625 28.01 4.27 27.7825 4.27C27.5725 4.27 27.3975 4.445 27.415 4.6725L27.555 6.6325L25.9275 5.5125C25.8225 5.4425 25.77 5.4075 25.6475 5.4075C25.455 5.425 25.28 5.5825 25.28 5.7925C25.28 5.95 25.385 6.055 25.525 6.125L27.38 7L25.525 7.875C25.4025 7.9275 25.28 8.05 25.28 8.2075C25.28 8.4 25.4375 8.5925 25.6475 8.5925C25.7525 8.5925 25.8225 8.5575 25.9275 8.4875L27.555 7.3675L27.415 9.3275C27.3975 9.5375 27.555 9.73 27.7825 9.73C27.9925 9.73 28.1675 9.555 28.15 9.3275L28.01 7.3675L29.6375 8.4875C29.7425 8.5575 29.8125 8.5925 29.9175 8.5925C30.11 8.5925 30.285 8.4175 30.285 8.2075C30.285 8.0325 30.1625 7.9275 30.04 7.875Z" fill="#21A037"/>
</svg>
