<?xml version="1.0" encoding="utf-8"?>
<!-- Generator: Adobe Illustrator 20.0.0, SVG Export Plug-In . SVG Version: 6.00 Build 0)  -->
<svg version="1.1" id="Capa_1" xmlns="http://www.w3.org/2000/svg" xmlns:xlink="http://www.w3.org/1999/xlink" x="0px" y="0px"
	 viewBox="0 0 93.5 69.8" style="enable-background:new 0 0 93.5 69.8;" xml:space="preserve">
<style type="text/css">
	.st0{fill:#EC1C24;}
	.st1{fill:#808080;}
</style>
<g>
	<path class="st0" d="M26.3,55.6H22l-3.8,13.2h4.9l0.6-2.2h2.6h2.6l0.6,2.2h4.9l-3.8-13.2C30.6,55.6,26.3,55.6,26.3,55.6z
		 M26.3,64.5h-2l2-6.9l2,6.9H26.3z"/>
	<path class="st0" d="M78.3,58.9c0-1.8-1.5-3.3-3.3-3.3h-3.1h-1.2h-5.4v6.6v6.6h5v-5.5h1.1c0.2,0,0.4,0,0.6,0.1
		c0.9,0.2,1.6,1.1,1.6,2.1v0.1v3.2H75h3.3v-3.3v-0.1c-0.1-1.8-1.5-3.2-3.3-3.2C76.8,62.2,78.3,60.8,78.3,58.9z M71.9,61
		c-0.2,0-0.4,0.1-0.6,0.1h-1.1v-4h1.1c0.2,0,0.4,0,0.6,0.1c0.9,0.2,1.6,0.7,1.6,1.7C73.5,59.9,72.8,60.8,71.9,61z"/>
	<polygon class="st0" points="50.6,68.8 55.5,68.8 55.5,63.3 63.6,63.3 63.6,61.2 55.5,61.2 55.5,57.8 63.6,57.8 63.6,55.6 
		50.6,55.6 	"/>
	<polygon class="st0" points="8.5,62.2 5.3,55.6 0.4,55.6 0.4,68.8 5.3,68.8 5.3,62.2 8.5,68.8 11.8,62.2 11.8,68.8 16.6,68.8 
		16.6,55.6 11.8,55.6 	"/>
	<polygon class="st0" points="93.1,57.8 93.1,55.6 80.1,55.6 80.1,68.8 93.1,68.8 93.1,66.7 85,66.7 85,63.3 93.1,63.3 93.1,61.2 
		85,61.2 85,57.8 	"/>
	<path class="st0" d="M45.1,55.6h-2.6H36v13.2h4.9v-5.5h1.7h2.6c2.1,0,3.9-1.7,3.9-3.9S47.2,55.6,45.1,55.6z M42.5,61
		c-0.2,0-0.4,0.1-0.6,0.1h-1.1v-4H42c0.2,0,0.4,0,0.6,0.1c0.9,0.2,1.6,0.7,1.6,1.7C44.2,59.9,43.5,60.8,42.5,61z"/>
</g>
<g>
	<path class="st1" d="M93.5,44.7c0-0.4-0.1-0.8-0.1-1.1c-0.1-0.3-0.2-0.7-0.3-0.9c-0.1-0.3-0.3-0.5-0.6-0.8
		c-0.8-0.8-1.8-1.2-2.9-1.2l0,0c-0.4,0-0.8,0.1-1.1,0.2c-0.8,0.1-1.6,0.5-2.2,1.1c-0.3,0.3-0.5,0.5-0.6,0.8s-0.3,0.6-0.3,0.9
		c-0.1,0.3-0.1,0.7-0.1,1.1c0,0.4,0,0.9,0,1.6c0,0.7,0,1.2,0,1.6c0,0.4,0.1,0.7,0.1,1.1c0.1,0.3,0.2,0.6,0.3,0.9
		c0.2,0.3,0.4,0.6,0.6,0.8c0.8,0.8,1.8,1.2,2.9,1.2l0,0c0.1,0,0.1,0,0.2,0s0.1,0,0.2,0l0,0c1.2,0,2.2-0.4,2.9-1.2
		c0.3-0.3,0.4-0.5,0.6-0.8c0.1-0.3,0.3-0.6,0.3-0.9c0.1-0.3,0.1-0.7,0.1-1.1c0-0.4,0-0.9,0-1.6S93.5,45.1,93.5,44.7z M88.6,50.3
		c-0.3-0.1-0.5-0.3-0.7-0.5c-0.1-0.2-0.3-0.3-0.3-0.5c-0.1-0.2-0.1-0.4-0.2-0.6c0-0.3-0.1-0.6-0.1-0.9c0-0.4,0-0.8,0-1.4s0-1,0-1.4
		s0.1-0.7,0.1-0.9s0.1-0.5,0.2-0.6c0.1-0.2,0.2-0.3,0.3-0.5c0.2-0.2,0.4-0.4,0.7-0.5c0.1,0,0.2,0,0.2-0.1c0.1,0,0.2,0,0.3,0l0,0
		c0.3,0,0.6,0.1,0.9,0.2c0.3,0.1,0.5,0.3,0.7,0.5c0.1,0.2,0.3,0.3,0.3,0.5c0.1,0.2,0.1,0.4,0.2,0.6c0,0.2,0.1,0.6,0.1,0.9
		c0,0.4,0,0.8,0,1.4s0,1,0,1.4s0,0.7-0.1,0.9c0,0.2-0.1,0.4-0.2,0.6c-0.1,0.2-0.2,0.3-0.3,0.5c-0.2,0.2-0.4,0.4-0.7,0.5
		c-0.2,0.1-0.4,0.1-0.6,0.2C89.1,50.5,88.8,50.4,88.6,50.3z"/>
	<polygon class="st1" points="28.5,40.8 26.8,40.8 23.7,47.6 20.5,40.9 20.4,40.9 20.4,40.8 18.7,40.8 18.7,51.9 18.8,51.9 
		18.8,51.9 20.5,51.9 20.5,44.8 23,49.9 23.1,49.9 23.1,49.9 24.4,49.9 26.8,44.8 26.8,51.9 26.9,51.9 26.9,51.9 28.6,51.9 
		28.6,40.9 28.5,40.9 	"/>
	<polygon class="st1" points="74.1,40.9 73.8,40.9 73.8,48.2 72.1,45.6 68.9,40.8 67.4,40.8 67.4,40.9 67.1,40.9 67.1,51.9 
		68.8,51.9 68.8,51.9 69.1,51.9 69.1,44.5 70.6,46.8 73.9,51.9 75.5,51.9 75.5,51.9 75.8,51.9 75.8,40.8 74.1,40.8 	"/>
	<path class="st1" d="M38.4,42.8c-0.2-0.4-0.4-0.8-0.7-1.1c-0.7-0.6-1.5-1-2.6-1h-0.3h-3.9v11.1H31l0,0h1.7v-4.3h2.2h0.3
		c1.1,0,1.9-0.3,2.6-1c0.3-0.3,0.5-0.7,0.7-1.1c0.2-0.4,0.2-0.8,0.2-1.3c0-0.2,0-0.5-0.1-0.7C38.5,43.3,38.4,43.1,38.4,42.8z
		 M36.9,44.2c0,0.6-0.2,1-0.5,1.4C36,45.8,35.5,46,34.9,46h-0.2h-2.2v-3.6h2.2H35c0.6,0,1.1,0.2,1.4,0.5c0.2,0.2,0.3,0.4,0.4,0.6
		C36.9,43.7,36.9,43.9,36.9,44.2z"/>
	<path class="st1" d="M54.8,45.9c-0.3-0.1-0.7-0.2-1.2-0.3L53,45.5l-0.7-0.1c-0.5-0.1-1-0.3-1.3-0.5s-0.4-0.6-0.4-1
		c0-0.5,0.2-0.9,0.5-1.2c0.4-0.3,0.8-0.4,1.4-0.4c0.5,0,0.9,0.1,1.3,0.2c0.4,0.1,0.8,0.3,1.1,0.7L55,43l0,0l1.1-1.1
		c-0.5-0.4-1-0.8-1.5-1s-1.2-0.3-1.9-0.3c-1.1,0-2.1,0.3-2.7,0.9c0,0,0,0-0.1,0.1l0,0c-0.7,0.6-1,1.4-1,2.3c0,0.9,0.3,1.6,0.8,2.1
		s1.2,0.8,2.1,0.9l0.7,0.1l0.7,0.1c0.3,0,0.6,0.1,0.7,0.2c0.2,0.1,0.3,0.2,0.5,0.3c0.3,0.3,0.4,0.6,0.4,1.1s-0.2,1-0.6,1.2
		c-0.3,0.2-0.7,0.3-1.1,0.4c-0.1,0-0.3,0-0.5,0c-0.6,0-1.1-0.1-1.6-0.2c-0.4-0.2-0.9-0.4-1.3-0.8h-0.1l0,0l-1.1,1.1
		c0.5,0.5,1.1,0.9,1.7,1.1c0.6,0.2,1.4,0.3,2.2,0.3c0,0,0,0,0.1,0c0,0,0,0,0.1,0c1.2,0,2.2-0.3,2.9-0.9c0.7-0.6,1.1-1.4,1.1-2.4
		s-0.3-1.7-0.9-2.3C55.4,46.2,55.1,46.1,54.8,45.9z"/>
	<path class="st1" d="M62.3,40.8h-0.7h-0.7v0.1h-0.1l-4.1,11h1.8l0,0h0.2l0.8-2.2h2h2.2l0.8,2.2h1.8l0,0h0.2L62.3,40.8z M63.1,48.2
		h-1.5h-1.7l1.6-4.6L63.1,48.2z"/>
	<polygon class="st1" points="77.1,40.9 76.8,40.9 76.8,42.4 79.8,42.4 79.8,51.9 81.5,51.9 81.5,51.9 81.8,51.9 81.8,42.4 
		84.5,42.4 84.5,42.3 84.9,42.3 84.9,40.8 77.1,40.8 	"/>
	<path class="st1" d="M47.5,43.6c-0.1-0.3-0.2-0.7-0.3-0.9c-0.1-0.3-0.3-0.5-0.6-0.8c-0.8-0.8-1.8-1.2-2.9-1.2
		c-1.2,0-2.1,0.4-2.9,1.2c-0.3,0.3-0.5,0.5-0.6,0.8s-0.3,0.6-0.3,0.9c-0.1,0.3-0.1,0.7-0.1,1.1c0,0,0,0,0,0.1l0,0c0,0.4,0,0.9,0,1.6
		c0,0.7,0,1.2,0,1.6c0,0.4,0.1,0.7,0.1,1.1c0.1,0.3,0.2,0.6,0.3,0.9c0.2,0.3,0.4,0.6,0.6,0.8c0.8,0.8,1.8,1.2,2.9,1.2l0,0l0,0
		c1.2,0,2.2-0.4,2.9-1.2c0.3-0.3,0.4-0.5,0.6-0.8c0.1-0.3,0.3-0.6,0.3-0.9c0.1-0.3,0.1-0.7,0.1-1.1c0-0.4,0-0.9,0-1.6
		c0-0.7,0-1.2,0-1.6C47.6,44.3,47.6,44,47.5,43.6z M41.4,44.9c0-0.4,0.1-0.7,0.1-0.9s0.1-0.4,0.2-0.6c0.1-0.2,0.2-0.3,0.3-0.5
		c0.2-0.2,0.4-0.4,0.7-0.5s0.6-0.2,0.9-0.2s0.6,0.1,0.9,0.2c0.3,0.1,0.5,0.3,0.7,0.5c0.1,0.2,0.3,0.3,0.3,0.5
		c0.1,0.2,0.1,0.4,0.2,0.6c0,0.2,0.1,0.6,0.1,0.9s0,0.8,0,1.4s0,1,0,1.4s0,0.7-0.1,0.9c0,0.2-0.1,0.4-0.2,0.6s-0.2,0.3-0.3,0.5
		c-0.2,0.2-0.4,0.4-0.7,0.5s-0.6,0.2-0.9,0.2c-0.3,0-0.6-0.1-0.9-0.2c-0.3-0.1-0.5-0.3-0.7-0.5c-0.1-0.2-0.3-0.3-0.3-0.5
		c-0.1-0.2-0.1-0.4-0.2-0.6c0-0.3-0.1-0.6-0.1-0.9c0-0.4,0-0.8,0-1.4S41.3,45.3,41.4,44.9z"/>
	<path class="st1" d="M8,48.6L8,48.6H6.3c-0.1,0.6-0.4,1-0.8,1.4c-0.4,0.3-0.8,0.5-1.4,0.5c-0.2,0-0.5-0.1-0.7-0.2
		c-0.3-0.1-0.5-0.3-0.7-0.5c-0.1-0.2-0.3-0.3-0.3-0.5c-0.1-0.2-0.1-0.4-0.2-0.6c0-0.2-0.1-0.6-0.1-0.9c0-0.4,0-0.8,0-1.4
		c0-0.6,0-1,0-1.4s0.1-0.7,0.1-0.9c0-0.3,0.1-0.5,0.2-0.6c0.1-0.2,0.2-0.3,0.3-0.5c0.2-0.2,0.4-0.4,0.7-0.5s0.6-0.2,0.9-0.2
		c0.2,0,0.4,0,0.6,0.1c0.2,0.1,0.4,0.2,0.6,0.4c0.4,0.3,0.6,0.8,0.8,1.4h0.2c0,0,0,0,0,0.1h1.7c-0.2-1.1-0.6-1.9-1.3-2.5
		c-0.4-0.3-0.8-0.6-1.3-0.7c-0.5-0.2-1-0.3-1.6-0.3c-1.2,0-2.1,0.4-2.9,1.2c-0.3,0.3-0.5,0.5-0.6,0.8s-0.3,0.6-0.3,0.9
		c-0.1,0.3-0.1,0.7-0.2,1c0,0.4,0,0.9,0,1.6C0,47,0,47.6,0,48s0.1,0.7,0.1,1.1c0.1,0.3,0.2,0.7,0.3,0.9c0.2,0.3,0.4,0.6,0.6,0.8
		C1.9,51.6,2.9,52,4,52c0.1,0,0.1,0,0.2,0h0.1c1,0,1.9-0.3,2.6-0.9c0.7-0.6,1.2-1.4,1.3-2.5H8z"/>
	<path class="st1" d="M13.7,40.9L13.7,40.9L13,40.8h-0.7L8.2,51.9h0.3l0,0h1.8l0.8-2.2h2.2h2l0.8,2.2h0.2l0,0h1.8l-4.1-11H13.7z
		 M14.7,48.2H13h-1.5l1.6-4.6L14.7,48.2z"/>
</g>
<g>
	<path class="st0" d="M59.2,15.8c-0.2-0.4-0.3-0.9-0.5-1.3c-0.2-0.3-0.3-0.7-0.5-1c-0.4-0.6-0.8-1.3-1.3-1.8
		c-0.7-0.9-1.5-1.6-2.4-2.3c-1.5-1.1-3.2-1.9-5.1-2.2c-0.7-0.1-1.3-0.2-2-0.2c-0.2,0-0.4,0-0.7,0l0,0l0,0c-0.9,0-1.8,0.1-2.6,0.3
		c-2.1,0.4-4,1.3-5.6,2.6c-0.3,0.2-0.5,0.4-0.8,0.7c-0.4,0.4-0.8,0.7-1.1,1.1c-1.9,2.3-3.1,5.2-3.1,8.5c0,6.4,4.5,11.7,10.6,12.9
		c0.4,0.1,0.8,0.1,1.3,0.2c0.4,0,0.9,0.1,1.3,0.1l0,0l0,0c0.9,0,1.8-0.1,2.6-0.3c1-0.2,1.9-0.5,2.8-0.9c0.3-0.2,0.7-0.3,1-0.5
		c4.1-2.2,6.8-6.6,6.8-11.5C59.9,18.6,59.7,17.2,59.2,15.8z M56.6,13.4c0.4,0.5,0.7,1.1,1,1.7c0.7,1.5,1.1,3.2,1.1,5
		c0,2.5-0.8,4.8-2.1,6.7c-0.4,0.5-0.8,1.1-1.2,1.5c-0.2,0.2-0.5,0.5-0.7,0.7c-0.4,0.4-0.9,0.7-1.3,1c-0.2,0.1-0.4,0.3-0.6,0.4
		c-1,0.6-2.1,1-3.3,1.3c-0.4,0.1-0.8,0.2-1.3,0.2c-0.4,0-0.9,0.1-1.3,0.1c0,0,0,0-0.1,0c-0.9,0-1.7-0.1-2.5-0.3
		C39,30.5,35,25.8,35,20.1c0-3.8,1.8-7.3,4.7-9.4c0.3-0.2,0.6-0.5,1-0.7c1.1-0.7,2.4-1.2,3.7-1.5c0.7-0.2,1.4-0.2,2.2-0.3
		c0.1,0,0.3,0,0.4,0c0.4,0,0.9,0,1.3,0.1c0.4,0,0.9,0.1,1.3,0.2C52.4,9.2,54.9,11,56.6,13.4z"/>
	<path class="st0" d="M46.8,13.5L46.8,13.5L46.8,13.5c-0.8,0-1.6,0.1-2.3,0.3c-0.1,0-0.2,0-0.3,0.1C44,14,43.8,14,43.7,14.1
		c-0.1,0-0.2,0.1-0.3,0.1c-0.2,0.1-0.4,0.3-0.5,0.4c-0.2,0.2-0.4,0.5-0.5,0.8c-0.1,0-0.3,0-0.4,0c-0.4,0-0.7,0.1-1,0.3
		c-0.1,0-0.1,0.1-0.2,0.1c-0.7,0.6-1.3,1.2-1.7,2c-0.5,0.8-0.8,1.6-0.9,2.5c0,0.1,0,0.2,0,0.3c0,0.2,0,0.3,0,0.5
		c0.1,0.5,0.4,1,0.9,1.3c0.3,0.2,0.7,0.3,1.1,0.3l0,0l0,0l0,0h4h0.2l0,0c0.1,0,0.2,0,0.3,0c0.3,0,0.6,0,0.9,0c0.2,0,0.3,0,0.5,0v4
		l0,0h1.3l0,0v-4c0.2,0,0.3,0,0.5,0c0.5,0,1,0,1.2,0h0.2h4l0,0l0,0l0,0c0.1,0,0.2,0,0.4,0c0.1,0,0.2,0,0.3-0.1
		c0.1,0,0.3-0.1,0.4-0.1c0.4-0.2,0.6-0.5,0.8-0.9c0.1-0.3,0.2-0.6,0.2-0.9c0-0.1,0-0.2,0-0.3c0-0.2-0.1-0.4-0.1-0.6
		c-0.2-0.6-0.4-1.3-0.8-1.8c-0.2-0.4-0.5-0.8-0.8-1.1s-0.6-0.7-1-1c-0.3-0.3-0.7-0.4-1.2-0.4c-0.1,0-0.3,0-0.4,0
		c0-0.2-0.1-0.4-0.1-0.5c-0.2-0.3-0.4-0.5-0.7-0.7c-0.1-0.1-0.3-0.2-0.4-0.2c-0.2-0.1-0.3-0.1-0.5-0.2c-0.6-0.2-1.3-0.3-1.9-0.3
		C47.2,13.6,47,13.5,46.8,13.5z M40.1,18.5c0.3-0.5,0.6-0.9,1-1.3c0.1-0.1,0.2-0.3,0.4-0.4l0,0c0.2-0.2,0.5-0.2,0.7,0
		c0.1,0.1,0.2,0.2,0.3,0.3l1.6,2.8l0.6,1c0,0.1,0.1,0.2,0,0.2v0.1c0,0.1-0.1,0.1-0.2,0.1h-0.1h-0.2h-4.1l0,0c-0.1,0-0.3,0-0.4-0.1
		c-0.2-0.1-0.3-0.4-0.3-0.6l0,0l0,0c0.1-0.4,0.2-0.7,0.3-1C39.8,19.2,39.9,18.9,40.1,18.5z M46.8,21.4c-0.2,0-0.3-0.1-0.4-0.2
		l-2.2-3.8L44,17l-0.2-0.4c0-0.1-0.1-0.1-0.1-0.2s0-0.2,0-0.2c0-0.2,0.1-0.5,0.3-0.6c0.1,0,0.1-0.1,0.2-0.1l0,0l0,0h0.1
		c0.1,0,0.3-0.1,0.4-0.1c0.5-0.1,1-0.2,1.5-0.3c0.2,0,0.4,0,0.7,0s0.5,0,0.8,0c0.6,0.1,1.3,0.2,1.8,0.4h0.1l0,0
		c0.1,0,0.1,0.1,0.2,0.1c0.1,0,0.1,0.1,0.2,0.2c0.1,0.1,0.1,0.3,0.1,0.5c0,0.1,0,0.2-0.1,0.3c0,0.1,0,0.1-0.1,0.1L49.5,17l-0.2,0.3
		l-2.2,3.9C47.1,21.3,46.9,21.4,46.8,21.4z M48.8,20.9l0.4-0.7l0.2-0.3l0.5-0.8l1.1-2c0.1-0.1,0.1-0.2,0.3-0.3h0.1h0.1
		c0.2,0,0.4,0,0.5,0.1l0,0c0.3,0.2,0.5,0.5,0.8,0.8c0.2,0.3,0.5,0.6,0.6,0.9c0.4,0.7,0.6,1.4,0.8,2.1c0,0,0,0,0,0.1s0,0.2-0.1,0.4
		c-0.1,0.1-0.1,0.2-0.3,0.3c-0.1,0.1-0.3,0.1-0.4,0.1h-4.1H49c-0.1,0-0.2,0-0.3-0.2c0-0.1,0-0.1,0-0.2C48.8,21,48.8,20.9,48.8,20.9z
		"/>
</g>
</svg>
