<svg width="36" height="42" viewBox="0 0 36 42" fill="none" xmlns="http://www.w3.org/2000/svg">
<path d="M35.6051 10.815C35.5876 9.6775 35.5701 8.61 35.5701 7.5775C35.5701 6.7725 34.9051 6.1075 34.1001 6.1075C27.8176 6.1075 23.0226 4.305 19.0326 0.42C18.4551 -0.14 17.5451 -0.14 16.9851 0.42C12.9776 4.2875 8.20012 6.1075 1.91762 6.1075C1.11262 6.1075 0.447621 6.7725 0.447621 7.5775C0.447621 8.61 0.430121 9.6775 0.412621 10.815C0.202621 21.3675 -0.0598805 35.8225 17.5276 41.9125C17.6676 41.965 17.8426 42 18.0001 42C18.1576 42 18.3326 41.965 18.4901 41.9125C36.0776 35.8225 35.7976 21.3675 35.6051 10.815ZM18.0001 38.9725C2.91512 33.495 3.14262 21.49 3.33512 10.8675C3.35262 10.2375 3.37012 9.625 3.37012 9.0125C9.26762 8.7675 13.9751 6.9825 18.0001 3.465C22.0251 6.9825 26.7326 8.7675 32.6301 9.0125C32.6301 9.625 32.6476 10.2375 32.6651 10.8675C32.8576 21.4725 33.0851 33.495 18.0001 38.9725Z" fill="#21A037"/>
<path d="M23.0574 15.8899L15.9699 22.9774L12.9424 19.9499C12.3649 19.3724 11.4374 19.3724 10.8599 19.9499C10.2824 20.5274 10.2824 21.4549 10.8599 22.0324L14.9199 26.0924C15.1999 26.3724 15.5849 26.5299 15.9524 26.5299C16.3199 26.5299 16.7049 26.3899 16.9849 26.0924L25.1224 17.9549C25.6999 17.3774 25.6999 16.4499 25.1224 15.8724C24.5624 15.3124 23.6349 15.3124 23.0574 15.8899Z" fill="#21A037"/>
</svg>
