<svg width="40" height="38" viewBox="0 0 40 38" fill="none" xmlns="http://www.w3.org/2000/svg">
<path d="M38.27 17.7226C39.1625 16.8651 39.4775 15.5876 39.0925 14.4151C38.7075 13.2426 37.71 12.3851 36.485 12.2101L27.1225 10.8451C27.105 10.8451 27.0875 10.8276 27.0875 10.8101L22.905 2.3226C22.345 1.2201 21.2425 0.537598 20 0.537598C18.7575 0.537598 17.6551 1.2201 17.0951 2.3401L12.9125 10.8101C12.9125 10.8276 12.8951 10.8276 12.8776 10.8451L3.51505 12.2101C2.29005 12.3851 1.29255 13.2251 0.907551 14.4151C0.522551 15.6051 0.83755 16.8651 1.73005 17.7226L8.50255 24.3201C8.52005 24.3376 8.52005 24.3551 8.52005 24.3726L6.92755 33.7001C6.71755 34.9251 7.20755 36.1326 8.20505 36.8676C9.20255 37.6026 10.515 37.6901 11.6175 37.1126L19.9825 32.7201C20 32.7201 20.0175 32.7201 20.035 32.7201L28.4 37.1126C28.8725 37.3576 29.3975 37.4801 29.905 37.4801C30.57 37.4801 31.235 37.2701 31.795 36.8676C32.7925 36.1326 33.2825 34.9251 33.0725 33.7001L31.48 24.3726C31.48 24.3551 31.48 24.3376 31.4975 24.3201L38.27 17.7226ZM28.3475 24.8976L29.94 34.2251C29.94 34.2426 29.94 34.2601 29.9225 34.2776C29.8875 34.2951 29.8875 34.2951 29.87 34.2776L21.505 29.8851C20.56 29.3951 19.4401 29.3951 18.4951 29.8851L10.1301 34.2776C10.1126 34.2951 10.095 34.2951 10.0775 34.2776C10.0426 34.2601 10.0601 34.2426 10.0601 34.2251L11.6525 24.8976C11.8275 23.8476 11.4775 22.7801 10.725 22.0451L3.95255 15.4476C3.93505 15.4301 3.91755 15.4126 3.93505 15.3951C3.95255 15.3601 3.95255 15.3601 3.97005 15.3601L13.3325 13.9951C14.3825 13.8376 15.2926 13.1726 15.765 12.2276L19.9475 3.7401C19.965 3.7226 19.965 3.7051 20 3.7051C20.035 3.7051 20.035 3.7051 20.0525 3.7401L24.2351 12.2276C24.7076 13.1901 25.6175 13.8376 26.6675 13.9951L36.03 15.3601C36.0475 15.3601 36.065 15.3601 36.065 15.3951C36.065 15.4301 36.065 15.4301 36.0475 15.4476L29.275 22.0451C28.5225 22.7801 28.1726 23.8476 28.3475 24.8976Z" fill="#21A037"/>
</svg>
