<svg width="36" height="36" viewBox="0 0 36 36" fill="none" xmlns="http://www.w3.org/2000/svg">
<path d="M11.7002 7.4126H8.55019C11.1752 5.1376 14.3252 3.9126 17.8252 3.9126C18.3502 3.9126 18.8752 3.9126 19.4002 4.0876C20.2752 4.2626 21.1502 3.5626 21.3252 2.5126C21.5002 1.6376 20.8002 0.762598 19.7502 0.587598C19.0502 0.412597 18.5252 0.412598 17.8252 0.412598C13.6252 0.412598 9.60019 1.9876 6.4502 4.6126V2.1626C6.4502 1.1126 5.7502 0.412598 4.7002 0.412598C3.6502 0.412598 2.9502 1.1126 2.9502 2.1626V9.1626C2.9502 10.2126 3.6502 10.9126 4.7002 10.9126H11.7002C12.7502 10.9126 13.4502 10.2126 13.4502 9.1626C13.4502 8.1126 12.7502 7.4126 11.7002 7.4126ZM9.0752 22.2876C8.0252 22.2876 7.3252 22.9876 7.3252 24.0376V27.1876C5.0502 24.5626 3.8252 21.4126 3.8252 17.9126C3.8252 17.3876 3.8252 16.8626 4.0002 16.3376C4.1752 15.4626 3.4752 14.5876 2.4252 14.4126C1.5502 14.2376 0.675195 14.9376 0.500195 15.9876C0.325195 16.6876 0.325195 17.2126 0.325195 17.9126C0.325195 22.1126 1.9002 26.1376 4.5252 29.2876H2.0752C1.0252 29.2876 0.325195 29.9876 0.325195 31.0376C0.325195 32.0876 1.0252 32.7876 2.0752 32.7876H9.0752C9.60019 32.7876 10.1252 32.4376 10.4752 32.0876C10.4752 31.9126 10.6502 31.7376 10.6502 31.5626C10.6502 31.3876 10.6502 31.3876 10.6502 31.2126V31.0376V24.0376C10.8252 22.9876 10.1252 22.2876 9.0752 22.2876ZM33.5752 6.5376C34.6252 6.5376 35.3252 5.8376 35.3252 4.7876C35.3252 3.7376 34.6252 3.0376 33.5752 3.0376H26.5752C26.4002 3.0376 26.4002 3.0376 26.2252 3.0376C26.0502 3.0376 25.8752 3.2126 25.7002 3.2126C25.5252 3.3876 25.3502 3.3876 25.3502 3.5626C25.3502 3.7376 25.1752 3.9126 25.1752 3.9126C25.1752 4.0876 25.1752 4.0876 25.1752 4.2626V4.4376V11.4376C25.1752 12.4876 25.8752 13.1876 26.9252 13.1876C27.9752 13.1876 28.6752 12.4876 28.6752 11.4376V8.6376C30.9502 11.0876 32.1752 14.4126 32.1752 17.9126C32.1752 18.4376 32.1752 18.9626 32.0002 19.4876C31.8252 20.3626 32.5252 21.2376 33.5752 21.4126H33.7502C34.6252 21.4126 35.3252 20.7126 35.5002 19.8376C35.5002 19.1376 35.6752 18.6126 35.6752 17.9126C35.6752 13.7126 34.1002 9.6876 31.4752 6.5376H33.5752ZM32.3502 25.7876C32.1752 25.6126 32.0002 25.4376 31.8252 25.2626C31.6502 25.0876 31.4752 25.0876 31.3002 25.0876H31.1252H30.9502H23.9502C22.9002 25.0876 22.2002 25.7876 22.2002 26.8376C22.2002 27.8876 22.9002 28.5876 23.9502 28.5876H27.1002C24.6502 30.8626 21.3252 32.0876 17.8252 32.0876C17.3002 32.0876 16.7752 32.0876 16.2502 31.9126C15.3752 31.7376 14.5002 32.4376 14.3252 33.4876C14.1502 34.5376 14.8502 35.2376 15.9002 35.4126C16.6002 35.4126 17.1252 35.5876 17.8252 35.5876C22.0252 35.5876 26.0502 34.0126 29.2002 31.3876V33.6626C29.2002 34.7126 29.9002 35.4126 30.9502 35.4126C32.0002 35.4126 32.7002 34.7126 32.7002 33.6626V26.6626C32.7002 26.3126 32.5252 25.9626 32.3502 25.7876Z" fill="#21A037"/>
</svg>
