<svg width="82" height="82" viewBox="0 0 82 82" fill="none" xmlns="http://www.w3.org/2000/svg">
<path d="M41 81.5C18.6578 81.5 0.5 63.3422 0.5 41C0.5 18.6578 18.6578 0.5 41 0.5C63.3422 0.5 81.5 18.6578 81.5 41C81.5 63.3422 63.3422 81.5 41 81.5ZM41 3.9075C20.5314 3.9075 3.9075 20.5314 3.9075 41C3.9075 61.4686 20.5314 78.0925 41 78.0925C61.4686 78.0925 78.0925 61.4686 78.0925 41C78.0925 20.5658 61.4689 3.9075 41 3.9075Z" fill="#21A037" stroke="#21A037"/>
<path d="M35.0762 41.2053V40.7053H35.042V40.2612H34.542H30.1345C30.069 40.2612 30.0195 40.2117 30.0195 40.1462V32.8687C30.0195 32.8031 30.069 32.7537 30.1345 32.7537H34.542H35.042V32.2537V25.2495C35.042 20.6398 38.7815 16.9003 43.3912 16.9003H51.7279C51.7934 16.9003 51.8429 16.9498 51.8429 17.0153V24.2928C51.8429 24.3584 51.7934 24.4078 51.7279 24.4078H46.8079C45.3359 24.4078 44.1212 25.6225 44.1212 27.0945V32.2537V32.7537H44.6212H51.6254C51.672 32.7537 51.6987 32.7707 51.7143 32.7882C51.7306 32.8063 51.7472 32.839 51.7424 32.8917L51.7421 32.8949L51.1276 40.1675C51.1171 40.2603 51.0518 40.2953 51.0104 40.2953H44.6212H44.1212V40.7953V64.9512C44.1212 65.0167 44.0717 65.0662 44.0062 65.0662H35.1912C35.1257 65.0662 35.0762 65.0167 35.0762 64.9512V41.2053Z" fill="#21A037" stroke="#21A037"/>
</svg>
