<svg width="72" height="72" viewBox="0 0 72 72" fill="none" xmlns="http://www.w3.org/2000/svg">
<path d="M36 71.5C16.4161 71.5 0.5 55.5839 0.5 36C0.5 16.4161 16.4161 0.5 36 0.5C55.5839 0.5 71.5 16.4161 71.5 36C71.5 55.5839 55.5839 71.5 36 71.5ZM36 3.37C17.9939 3.37 3.37 17.9939 3.37 36C3.37 54.0061 17.9939 68.63 36 68.63C54.0061 68.63 68.63 54.0061 68.63 36C68.63 18.0242 54.0064 3.37 36 3.37Z" fill="#FAFAFA" stroke="#FAFAFA"/>
<path d="M30.8599 36.1804V35.6804H30.8299V35.2904H30.3299H26.4599C26.4462 35.2904 26.4374 35.2857 26.431 35.2793C26.4246 35.273 26.4199 35.2641 26.4199 35.2504V28.8604C26.4199 28.8467 26.4246 28.8378 26.431 28.8314C26.4374 28.8251 26.4462 28.8204 26.4599 28.8204H30.3299H30.8299V28.3204V22.1704C30.8299 18.1565 34.0861 14.9004 38.0999 14.9004H45.4199C45.4336 14.9004 45.4425 14.9051 45.4489 14.9114C45.4553 14.9178 45.4599 14.9267 45.4599 14.9404V21.3304C45.4599 21.3441 45.4553 21.3529 45.4489 21.3593C45.4425 21.3657 45.4336 21.3704 45.4199 21.3704H41.0999C39.7738 21.3704 38.6799 22.4643 38.6799 23.7904V28.3204V28.8204H39.1799H45.3299C45.3435 28.8204 45.351 28.823 45.3544 28.8245C45.358 28.8261 45.3606 28.8281 45.3626 28.8304C45.3634 28.8313 45.3643 28.8324 45.3652 28.8338C45.3666 28.836 45.3681 28.8389 45.3693 28.8427C45.3713 28.8487 45.3734 28.8591 45.372 28.8751L45.3717 28.8783L44.8321 35.263C44.8261 35.3141 44.7942 35.3204 44.7899 35.3204H39.1799H38.6799V35.8204V57.0304C38.6799 57.0441 38.6753 57.0529 38.6689 57.0593C38.6625 57.0657 38.6536 57.0704 38.6399 57.0704H30.8999C30.8862 57.0704 30.8774 57.0657 30.871 57.0593C30.8646 57.0529 30.8599 57.0441 30.8599 57.0304V36.1804Z" fill="#FAFAFA" stroke="#FAFAFA"/>
</svg>
