<svg width="82" height="82" viewBox="0 0 82 82" fill="none" xmlns="http://www.w3.org/2000/svg">
<path d="M41 81.5C18.678 81.5 0.5 63.322 0.5 41C0.5 18.678 18.678 0.5 41 0.5C63.3223 0.5 81.5 18.6439 81.5 41C81.5 63.3223 63.3561 81.5 41 81.5ZM41 3.38675C20.2582 3.38675 3.38674 20.2583 3.38674 41C3.38674 61.7418 20.2582 78.6133 41 78.6133C61.7417 78.6133 78.6133 61.7418 78.6133 41C78.6133 20.2583 61.7417 3.38675 41 3.38675ZM52.3003 27.3792C52.3003 25.9699 53.4179 24.8524 54.8272 24.8524C56.2364 24.8524 57.354 25.9699 57.354 27.3792C57.354 28.7885 56.2364 29.906 54.8272 29.906C53.4179 29.906 52.3003 28.7885 52.3003 27.3792ZM29.0831 41C29.0831 34.2258 34.6024 28.7391 41.344 28.7391C48.0855 28.7391 53.6049 34.2258 53.6049 41C53.6049 47.7742 48.0855 53.2609 41.344 53.2609C34.5689 53.2609 29.0831 47.775 29.0831 41ZM32.6921 41C32.6921 45.782 36.5619 49.6518 41.344 49.6518C46.126 49.6518 49.9958 45.782 49.9958 41C49.9958 36.218 46.126 32.3482 41.344 32.3482C36.5619 32.3482 32.6921 36.218 32.6921 41ZM51.5252 15.3591C59.848 15.3591 66.5722 22.0832 66.5722 30.406V50.906C66.5722 59.2289 59.848 65.953 51.5252 65.953H30.9908C22.6679 65.953 15.9438 59.2289 15.9438 50.906V30.406C15.9438 22.0832 22.6679 15.3591 30.9908 15.3591H51.5252ZM51.5252 62.0688C57.683 62.0688 62.6879 57.0639 62.6879 50.906V30.406C62.6879 24.2482 57.683 19.2433 51.5252 19.2433H30.9908C24.8329 19.2433 19.828 24.2482 19.828 30.406V50.906C19.828 57.0639 24.8329 62.0688 30.9908 62.0688H51.5252Z" fill="#21A037" stroke="#21A037"/>
</svg>
