<svg width="72" height="72" viewBox="0 0 72 72" fill="none" xmlns="http://www.w3.org/2000/svg">
<path d="M36 71.5C16.4339 71.5 0.5 55.5661 0.5 36C0.5 16.4339 16.4339 0.5 36 0.5C55.5664 0.5 71.5 16.4039 71.5 36C71.5 55.5664 55.5961 71.5 36 71.5ZM36 2.91275C17.7541 2.91275 2.91274 17.7541 2.91274 36C2.91274 54.2459 17.7541 69.0872 36 69.0872C54.2459 69.0872 69.0872 54.2459 69.0872 36C69.0872 17.7541 54.2459 2.91275 36 2.91275ZM45.9832 24.0403C45.9832 22.8365 46.9372 21.8826 48.1409 21.8826C49.3447 21.8826 50.2987 22.8365 50.2987 24.0403C50.2987 25.244 49.3447 26.198 48.1409 26.198C46.9372 26.198 45.9832 25.244 45.9832 24.0403ZM25.5973 36C25.5973 30.0857 30.4162 25.2953 36.302 25.2953C42.1878 25.2953 47.0067 30.0857 47.0067 36C47.0067 41.9143 42.1878 46.7047 36.302 46.7047C30.3869 46.7047 25.5973 41.9151 25.5973 36ZM28.6443 36C28.6443 40.2325 32.0695 43.6577 36.302 43.6577C40.5345 43.6577 43.9597 40.2325 43.9597 36C43.9597 31.7675 40.5345 28.3423 36.302 28.3423C32.0695 28.3423 28.6443 31.7675 28.6443 36ZM45.2416 13.547C52.5158 13.547 58.3926 19.4238 58.3926 26.698V44.698C58.3926 51.9722 52.5158 57.849 45.2416 57.849H27.2114C19.9372 57.849 14.0604 51.9722 14.0604 44.698V26.698C14.0604 19.4238 19.9372 13.547 27.2114 13.547H45.2416ZM45.2416 54.5604C50.6822 54.5604 55.104 50.1386 55.104 44.698V26.698C55.104 21.2574 50.6822 16.8356 45.2416 16.8356H27.2114C21.7708 16.8356 17.349 21.2574 17.349 26.698V44.698C17.349 50.1386 21.7708 54.5604 27.2114 54.5604H45.2416Z" fill="#FAFAFA" stroke="#FAFAFA"/>
</svg>
