<svg width="82" height="82" viewBox="0 0 82 82" fill="none" xmlns="http://www.w3.org/2000/svg">
<path d="M41 81.5C18.6543 81.5 0.5 63.3457 0.5 41C0.5 18.6543 18.6543 0.5 41 0.5C63.3457 0.5 81.5 18.6543 81.5 41C81.5 63.3457 63.3457 81.5 41 81.5ZM41 3.91486C20.5661 3.91486 3.91486 20.5661 3.91486 41C3.91486 61.4339 20.5661 78.0852 41 78.0852C61.4339 78.0852 78.0851 61.4339 78.0851 41C78.0851 20.5664 61.4684 3.91486 41 3.91486Z" fill="#21A037" stroke="#21A037"/>
<path d="M44.6408 32.9227V36.0011L43.8652 36.7766H45.0723H45.1408H45.6408V36.3811V36.324C46.2354 35.4297 47.0312 34.3952 48.2162 33.568C49.4482 32.708 51.1272 32.054 53.49 32.0538C56.4428 32.0706 58.9682 33.0327 60.7594 34.9809C62.5546 36.9333 63.6691 39.9383 63.6691 44.1481V59.4461C63.6691 59.5464 63.585 59.6306 63.4847 59.6306H55.579C55.4787 59.6306 55.3945 59.5464 55.3945 59.4461V45.209C55.3945 43.2983 55.0552 41.6074 54.2215 40.3805C53.3661 39.1218 52.031 38.4119 50.2059 38.4119C47.3679 38.4119 45.718 40.3181 44.9863 42.1101C44.7063 42.7904 44.6408 43.7329 44.6408 44.5588V59.4461C44.6408 59.5464 44.5566 59.6306 44.4563 59.6306H36.5848C36.4845 59.6306 36.4004 59.5464 36.4004 59.4461H35.9004L36.4003 59.4506C36.4345 55.6561 36.503 37.289 36.4004 32.9187C36.4026 32.8202 36.4859 32.7382 36.5848 32.7382H44.4563C44.5566 32.7382 44.6408 32.8224 44.6408 32.9227ZM30.0823 59.6306H22.1767C22.0763 59.6306 21.9922 59.5464 21.9922 59.4461V32.9227C21.9922 32.8224 22.0763 32.7382 22.1767 32.7382H30.0823C30.1827 32.7382 30.2668 32.8224 30.2668 32.9227V59.4461C30.2668 59.5464 30.1827 59.6306 30.0823 59.6306Z" fill="#21A037" stroke="#21A037"/>
<path d="M30.3018 23.7171C30.3018 26.1816 28.3039 28.1795 25.8394 28.1795C23.3749 28.1795 21.377 26.1816 21.377 23.7171C21.377 21.2525 23.3749 19.2546 25.8394 19.2546C28.3039 19.2546 30.3018 21.2525 30.3018 23.7171Z" fill="#21A037" stroke="#21A037"/>
</svg>
