<svg width="72" height="72" viewBox="0 0 72 72" fill="none" xmlns="http://www.w3.org/2000/svg">
<path d="M36 71.5C16.413 71.5 0.5 55.587 0.5 36C0.5 16.413 16.413 0.5 36 0.5C55.587 0.5 71.5 16.413 71.5 36C71.5 55.587 55.587 71.5 36 71.5ZM36 3.37646C18.0244 3.37646 3.37646 18.0244 3.37646 36C3.37646 53.9756 18.0244 68.6236 36 68.6236C53.9756 68.6236 68.6235 53.9756 68.6235 36C68.6235 18.0247 54.006 3.37646 36 3.37646Z" fill="#FAFAFA" stroke="#FAFAFA"/>
<path d="M39.1362 31.5855V28.9078C39.1362 28.8534 39.0896 28.8068 39.0352 28.8068H32.1237C32.0704 28.8068 32.0246 28.8515 32.0227 28.9044C32.1128 32.7458 32.0527 48.8701 32.0226 52.2011L31.5227 52.1966H32.0227C32.0227 52.251 32.0693 52.2976 32.1237 52.2976H39.0352C39.0896 52.2976 39.1362 52.251 39.1362 52.1966V39.1248C39.1362 38.3991 39.1933 37.561 39.4441 36.9516C39.4442 36.9515 39.4442 36.9513 39.4443 36.9512L39.9066 37.1415C40.5076 35.6691 41.8298 34.1666 44.0836 34.1666C47.0285 34.1666 48.2005 36.4203 48.2005 39.6958V52.1966C48.2005 52.5272 48.4709 52.7976 48.8015 52.7976H55.743C56.0736 52.7976 56.344 52.5272 56.344 52.1966V38.7642C56.344 31.2217 52.3474 27.7359 46.9684 27.7058L39.1362 31.5855ZM39.1362 31.5855L38.369 32.3527H39.5761H39.6362H40.1362V31.9697V31.9128C40.6554 31.1338 41.3467 30.2397 42.3715 29.5244C43.4428 28.7766 44.9048 28.2061 46.967 28.2058L39.1362 31.5855ZM26.4142 52.2976H19.4726C19.4182 52.2976 19.3716 52.251 19.3716 52.1966V28.9078C19.3716 28.8534 19.4182 28.8068 19.4726 28.8068H26.4142C26.4686 28.8068 26.5152 28.8534 26.5152 28.9078V52.1966C26.5152 52.251 26.4686 52.2976 26.4142 52.2976Z" fill="#FAFAFA" stroke="#FAFAFA"/>
<path d="M26.5453 20.8248C26.5453 22.9551 24.8184 24.6821 22.6881 24.6821C20.5578 24.6821 18.8308 22.9551 18.8308 20.8248C18.8308 18.6945 20.5578 16.9675 22.6881 16.9675C24.8184 16.9675 26.5453 18.6945 26.5453 20.8248Z" fill="#FAFAFA" stroke="#FAFAFA"/>
</svg>
