<svg width="72" height="72" viewBox="0 0 72 72" fill="none" xmlns="http://www.w3.org/2000/svg">
<path d="M53.5793 20.4043H18.4207C16.6477 20.4043 15.2053 21.8467 15.2053 23.6197V48.411C15.2053 50.1839 16.6477 51.6263 18.4207 51.6263H53.6093C55.3823 51.6263 56.8247 50.1839 56.8247 48.411V23.6197C56.7946 21.8467 55.3522 20.4043 53.5793 20.4043ZM53.1285 22.7783L36.2103 37.2323L19.3222 22.7783H53.1285ZM54.4207 48.3809C54.4207 48.8317 54.03 49.2223 53.5793 49.2223H18.4207C17.9699 49.2223 17.5793 48.8317 17.5793 48.3809V24.401L35.4591 39.6964L35.4891 39.7265L35.5192 39.7565C35.5492 39.7866 35.5492 39.7866 35.5793 39.7866C35.5793 39.7866 35.6093 39.7866 35.6093 39.8167C35.6394 39.8467 35.6694 39.8467 35.7295 39.8768H35.7596C35.7896 39.8768 35.8197 39.9068 35.8497 39.9068H35.8798C35.9098 39.9068 35.9399 39.9369 35.9699 39.9369H36C36.03 39.9369 36.0601 39.9368 36.0901 39.9669H36.1202C36.1502 39.9669 36.2103 39.9669 36.2404 39.9669C36.2704 39.9669 36.3305 39.9669 36.3606 39.9669H36.3906C36.4207 39.9669 36.4507 39.9669 36.4808 39.9369H36.5108C36.5409 39.9369 36.5709 39.9068 36.601 39.9068H36.631C36.6611 39.9068 36.6911 39.8768 36.7212 39.8768H36.7512C36.7813 39.8467 36.8113 39.8467 36.8714 39.8167C36.8714 39.8167 36.9015 39.8167 36.9015 39.7866C36.9315 39.7565 36.9315 39.7565 36.9616 39.7565L36.9916 39.7265L37.0217 39.6964L54.4808 24.7916V48.3809H54.4207Z" fill="#FAFAFA" stroke="#FAFAFA" stroke-width="0.4" stroke-miterlimit="10"/>
<path d="M36 71.5C16.413 71.5 0.5 55.587 0.5 36C0.5 16.413 16.413 0.5 36 0.5C55.587 0.5 71.5 16.413 71.5 36C71.5 55.587 55.587 71.5 36 71.5ZM36 3.37646C18.0244 3.37646 3.37646 18.0244 3.37646 36C3.37646 53.9756 18.0244 68.6235 36 68.6235C53.9756 68.6235 68.6235 53.9756 68.6235 36C68.6235 18.0244 53.9756 3.37646 36 3.37646Z" fill="#FAFAFA" stroke="#FAFAFA"/>
</svg>
