<svg width="82" height="82" viewBox="0 0 82 82" fill="none" xmlns="http://www.w3.org/2000/svg">
<path d="M61.0211 23.2383H20.9793C18.9601 23.2383 17.3174 24.8811 17.3174 26.9003V55.1348C17.3174 57.154 18.9601 58.7968 20.9793 58.7968H61.0553C63.0745 58.7968 64.7172 57.154 64.7172 55.1348V26.9003C64.683 24.8811 63.0403 23.2383 61.0211 23.2383ZM60.5077 25.942L41.2398 42.4036L22.006 25.942H60.5077ZM61.9793 55.1006C61.9793 55.614 61.5344 56.0589 61.0211 56.0589H20.9793C20.466 56.0589 20.0211 55.614 20.0211 55.1006V27.7901L40.3842 45.21L40.4184 45.2442L40.4526 45.2784C40.4868 45.3126 40.4868 45.3126 40.5211 45.3126C40.5211 45.3126 40.5553 45.3126 40.5553 45.3469C40.5895 45.3811 40.6237 45.3811 40.6922 45.4153H40.7264C40.7606 45.4153 40.7948 45.4495 40.8291 45.4495H40.8633C40.8975 45.4495 40.9317 45.4838 40.966 45.4838H41.0002C41.0344 45.4838 41.0686 45.4837 41.1029 45.518H41.1371C41.1713 45.518 41.2398 45.518 41.274 45.518C41.3082 45.518 41.3766 45.518 41.4109 45.518H41.4451C41.4793 45.518 41.5135 45.518 41.5478 45.4838H41.582C41.6162 45.4838 41.6504 45.4495 41.6847 45.4495H41.7189C41.7531 45.4495 41.7873 45.4153 41.8216 45.4153H41.8558C41.89 45.3811 41.9242 45.3811 41.9927 45.3469C41.9927 45.3469 42.0269 45.3469 42.0269 45.3126C42.0611 45.2784 42.0611 45.2784 42.0953 45.2784L42.1296 45.2442L42.1638 45.21L62.0478 28.235V55.1006H61.9793Z" fill="#21A037" stroke="#21A037" stroke-width="0.4" stroke-miterlimit="10"/>
<path d="M41 81.5C18.6543 81.5 0.5 63.3457 0.5 41C0.5 18.6543 18.6543 0.5 41 0.5C63.3457 0.5 81.5 18.6543 81.5 41C81.5 63.3457 63.3457 81.5 41 81.5ZM41 3.91486C20.5661 3.91486 3.91486 20.5661 3.91486 41C3.91486 61.4339 20.5661 78.0851 41 78.0851C61.4339 78.0851 78.0851 61.4339 78.0851 41C78.0851 20.5661 61.4339 3.91486 41 3.91486Z" fill="#21A037" stroke="#21A037"/>
</svg>
