<svg width="82" height="82" viewBox="0 0 82 82" fill="none" xmlns="http://www.w3.org/2000/svg">
<path d="M41 81.5C18.6578 81.5 0.5 63.3422 0.5 41C0.5 18.6578 18.6578 0.5 41 0.5C63.3422 0.5 81.5 18.6578 81.5 41C81.5 63.3422 63.3422 81.5 41 81.5ZM41 3.9075C20.5314 3.9075 3.9075 20.5314 3.9075 41C3.9075 61.4686 20.5314 78.0925 41 78.0925C61.4686 78.0925 78.0925 61.4686 78.0925 41C78.0925 20.5314 61.4686 3.9075 41 3.9075Z" fill="#21A037" stroke="#21A037"/>
<path d="M22.6295 52.6867L22.7428 52.4372L22.5936 52.2074C20.0499 48.2915 18.7109 43.7737 18.7109 39.0523C18.7109 25.696 29.5912 14.8156 42.9476 14.8156C56.3042 14.8156 67.185 25.6964 67.2184 39.0194C67.2178 52.4089 56.304 63.289 42.9476 63.289C38.9631 63.289 35.0465 62.318 31.5321 60.4436L31.3565 60.35L31.1647 60.4026L20.8367 63.2317C20.818 63.2348 20.8 63.2379 20.7827 63.2408C20.6073 63.2704 20.4977 63.289 20.3634 63.289C19.8922 63.289 19.4182 63.078 19.1053 62.7145C18.7158 62.2449 18.6105 61.5285 18.8711 60.955L22.6295 52.6867ZM32.4062 57.1452L32.4062 57.1453L32.4118 57.1485C35.5978 59.0041 39.2381 59.984 42.9476 59.984C54.464 59.984 63.8793 50.604 63.8793 39.0523C63.8793 27.5012 54.4987 18.1206 42.9476 18.1206C31.3965 18.1206 22.0159 27.5012 22.0159 39.0523C22.0159 43.4619 23.3813 47.6988 25.9717 51.2696C26.3037 51.7296 26.3658 52.3594 26.1242 52.9274L23.769 58.1156L23.3291 59.0847L24.3558 58.8047L31.0966 56.9663C31.1154 56.9631 31.1335 56.9601 31.1509 56.9571C31.3262 56.9275 31.4359 56.909 31.5701 56.909C31.854 56.909 32.1411 56.9861 32.4062 57.1452Z" fill="#21A037" stroke="#21A037"/>
<path d="M38.4586 33.9722L38.457 33.9811L38.4556 33.99C38.4034 34.3423 38.2291 34.6951 37.9724 35.0623C37.767 35.3563 37.5315 35.6295 37.2913 35.9083C37.228 35.9817 37.1643 36.0556 37.1008 36.1303C36.87 36.3998 36.6769 36.7052 36.6343 37.067C36.5905 37.4393 36.7158 37.7771 36.9222 38.0896C38.922 41.3837 41.7008 43.812 45.3196 45.2539C45.6158 45.3798 45.9331 45.4441 46.2532 45.3801C46.5831 45.3141 46.8491 45.1254 47.0589 44.869C47.2335 44.6557 47.4012 44.4003 47.5599 44.1508C47.6017 44.0851 47.6429 44.0197 47.6838 43.9548C47.8037 43.7645 47.9216 43.5775 48.0462 43.3945C48.391 42.8879 48.702 42.5472 49.0096 42.4202C49.4839 42.2371 50.0093 42.2662 50.5679 42.4345C51.1299 42.6039 51.6844 42.9019 52.1877 43.2038C52.3803 43.3207 52.5784 43.4319 52.779 43.5446C53.1351 43.7445 53.4992 43.9489 53.8551 44.1977C54.4001 44.5788 54.757 44.9591 54.8652 45.3573C54.9687 45.8059 54.8935 46.3061 54.6872 46.7778L54.6852 46.7823C53.9833 48.4303 52.276 49.5149 50.4726 49.8697C48.9566 50.1553 47.6846 49.7427 46.141 49.2421C45.9955 49.1949 45.8476 49.147 45.6968 49.0987L45.693 49.0975C44.2111 48.6365 42.8158 47.9081 41.4637 47.0969C38.8252 45.4935 36.5157 43.3192 34.6726 40.8059L34.6715 40.8044C34.1001 40.0313 33.5636 39.2264 33.0955 38.4238L33.0955 38.4238L33.0935 38.4205C32.455 37.3452 31.9024 36.2328 31.6119 35.0384L31.6119 35.0384L31.6112 35.0353C31.4834 34.5244 31.4211 34.0527 31.4211 33.5508H31.4212L31.421 33.5418C31.389 31.7495 32.0623 29.9966 33.3885 28.9166C34.1761 28.2809 35.2166 28.0724 35.9706 28.4851C36.383 28.7263 36.729 29.162 37.0409 29.7171C37.2758 30.1349 37.4682 30.5751 37.6553 31.0031C37.7188 31.1483 37.7817 31.2922 37.8454 31.4332L37.8454 31.4332L37.8466 31.4358C38.0319 31.8401 38.2233 32.2892 38.349 32.7409C38.4757 33.1965 38.5245 33.6165 38.4586 33.9722Z" fill="#21A037" stroke="#21A037"/>
</svg>
