<svg width="72" height="72" viewBox="0 0 72 72" fill="none" xmlns="http://www.w3.org/2000/svg">
<mask id="path-1-inside-1_398_1631" fill="white">
<path d="M36 72C16.14 72 0 55.86 0 36C0 16.14 16.14 0 36 0C55.86 0 72 16.14 72 36C72 55.86 55.86 72 36 72ZM36 3.87C18.27 3.87 3.87 18.27 3.87 36C3.87 53.73 18.27 68.13 36 68.13C53.73 68.13 68.13 53.73 68.13 36C68.13 18.27 53.73 3.87 36 3.87Z"/>
</mask>
<path d="M36 72C16.14 72 0 55.86 0 36C0 16.14 16.14 0 36 0C55.86 0 72 16.14 72 36C72 55.86 55.86 72 36 72ZM36 3.87C18.27 3.87 3.87 18.27 3.87 36C3.87 53.73 18.27 68.13 36 68.13C53.73 68.13 68.13 53.73 68.13 36C68.13 18.27 53.73 3.87 36 3.87Z" fill="#FAFAFA" stroke="#FAFAFA" stroke-width="2" mask="url(#path-1-inside-1_398_1631)"/>
<mask id="path-2-inside-2_398_1631" fill="white">
<path fill-rule="evenodd" clip-rule="evenodd" d="M37.7102 12.5698C25.7402 12.5698 15.9902 22.3198 15.9902 34.2898C15.9902 38.5198 17.1902 42.5698 19.4702 46.0798L16.1702 53.3398C15.8702 53.9998 15.9902 54.8098 16.4402 55.3498C16.8002 55.7698 17.3402 56.0098 17.8802 56.0098C18.0602 56.0098 18.2102 55.9798 18.3902 55.9498L27.4802 53.4598C30.6302 55.1398 34.1402 56.0098 37.7102 56.0098C49.6802 56.0098 59.4602 46.2598 59.4602 34.2598C59.4302 22.3198 49.6802 12.5698 37.7102 12.5698ZM37.7102 52.2298C34.5302 52.2298 31.4102 51.3898 28.6802 49.7998C28.3802 49.6198 28.0502 49.5298 27.7202 49.5298C27.5402 49.5298 27.3902 49.5598 27.2102 49.5898L21.2702 51.2098L23.3402 46.6498C23.6102 46.0198 23.5502 45.2998 23.1602 44.7598C20.9402 41.6998 19.7702 38.0698 19.7702 34.2898C19.7702 24.3898 27.8102 16.3498 37.7102 16.3498C47.6102 16.3498 55.6502 24.3898 55.6502 34.2898C55.6502 44.1898 47.5802 52.2298 37.7102 52.2298Z"/>
</mask>
<path fill-rule="evenodd" clip-rule="evenodd" d="M37.7102 12.5698C25.7402 12.5698 15.9902 22.3198 15.9902 34.2898C15.9902 38.5198 17.1902 42.5698 19.4702 46.0798L16.1702 53.3398C15.8702 53.9998 15.9902 54.8098 16.4402 55.3498C16.8002 55.7698 17.3402 56.0098 17.8802 56.0098C18.0602 56.0098 18.2102 55.9798 18.3902 55.9498L27.4802 53.4598C30.6302 55.1398 34.1402 56.0098 37.7102 56.0098C49.6802 56.0098 59.4602 46.2598 59.4602 34.2598C59.4302 22.3198 49.6802 12.5698 37.7102 12.5698ZM37.7102 52.2298C34.5302 52.2298 31.4102 51.3898 28.6802 49.7998C28.3802 49.6198 28.0502 49.5298 27.7202 49.5298C27.5402 49.5298 27.3902 49.5598 27.2102 49.5898L21.2702 51.2098L23.3402 46.6498C23.6102 46.0198 23.5502 45.2998 23.1602 44.7598C20.9402 41.6998 19.7702 38.0698 19.7702 34.2898C19.7702 24.3898 27.8102 16.3498 37.7102 16.3498C47.6102 16.3498 55.6502 24.3898 55.6502 34.2898C55.6502 44.1898 47.5802 52.2298 37.7102 52.2298Z" fill="#FAFAFA" stroke="#FAFAFA" stroke-width="2" mask="url(#path-2-inside-2_398_1631)"/>
<mask id="path-3-inside-3_398_1631" fill="white">
<path fill-rule="evenodd" clip-rule="evenodd" d="M46.0504 37.5591C45.1504 37.0191 43.9504 36.4191 42.8704 36.8391C42.0604 37.1691 41.5204 38.4591 40.9804 39.1191C40.7104 39.4491 40.3804 39.5091 39.9604 39.3291C36.8704 38.0991 34.5004 36.0291 32.7904 33.2091C32.4904 32.7591 32.5504 32.4291 32.9104 32.0091C33.4204 31.4091 34.0804 30.7191 34.2004 29.9091C34.3504 29.0991 33.9604 28.1391 33.6304 27.4191C33.2104 26.4891 32.7304 25.1691 31.8004 24.6291C30.9304 24.1491 29.8204 24.4191 29.0404 25.0491C27.7504 26.0991 27.1204 27.7791 27.1504 29.4591C27.1504 29.9391 27.2104 30.3891 27.3304 30.8691C27.6004 31.9791 28.1104 32.9991 28.6804 33.9591C29.1004 34.6791 29.5804 35.3991 30.0904 36.0891C31.7404 38.3391 33.8104 40.2891 36.1804 41.7291C37.3804 42.4491 38.6404 43.1091 39.9904 43.5291C41.4904 44.0091 42.8104 44.5191 44.4004 44.2191C46.0804 43.8891 47.7304 42.8691 48.4204 41.2491C48.6304 40.7691 48.7204 40.2291 48.6004 39.7191C48.3304 38.6991 46.8904 38.0691 46.0504 37.5591Z"/>
</mask>
<path fill-rule="evenodd" clip-rule="evenodd" d="M46.0504 37.5591C45.1504 37.0191 43.9504 36.4191 42.8704 36.8391C42.0604 37.1691 41.5204 38.4591 40.9804 39.1191C40.7104 39.4491 40.3804 39.5091 39.9604 39.3291C36.8704 38.0991 34.5004 36.0291 32.7904 33.2091C32.4904 32.7591 32.5504 32.4291 32.9104 32.0091C33.4204 31.4091 34.0804 30.7191 34.2004 29.9091C34.3504 29.0991 33.9604 28.1391 33.6304 27.4191C33.2104 26.4891 32.7304 25.1691 31.8004 24.6291C30.9304 24.1491 29.8204 24.4191 29.0404 25.0491C27.7504 26.0991 27.1204 27.7791 27.1504 29.4591C27.1504 29.9391 27.2104 30.3891 27.3304 30.8691C27.6004 31.9791 28.1104 32.9991 28.6804 33.9591C29.1004 34.6791 29.5804 35.3991 30.0904 36.0891C31.7404 38.3391 33.8104 40.2891 36.1804 41.7291C37.3804 42.4491 38.6404 43.1091 39.9904 43.5291C41.4904 44.0091 42.8104 44.5191 44.4004 44.2191C46.0804 43.8891 47.7304 42.8691 48.4204 41.2491C48.6304 40.7691 48.7204 40.2291 48.6004 39.7191C48.3304 38.6991 46.8904 38.0691 46.0504 37.5591Z" fill="#FAFAFA" stroke="#FAFAFA" stroke-width="2" mask="url(#path-3-inside-3_398_1631)"/>
</svg>
