<svg width="24" height="24" viewBox="0 0 24 24" fill="none" xmlns="http://www.w3.org/2000/svg">
<g clip-path="url(#clip0_414_1706)">
<path d="M21.0499 11.9998C21.4799 11.5298 21.8799 11.0598 22.2299 10.5898C23.9499 8.28976 24.4399 6.27976 23.5999 4.91976C22.7699 3.55976 20.7499 3.06976 17.9299 3.54976C16.1099 3.84976 14.0699 4.53976 11.9999 5.51976C9.92988 4.53976 7.88988 3.84976 6.06988 3.54976C3.23988 3.06976 1.22988 3.54976 0.399881 4.91976C-0.430119 6.27976 0.0598806 8.29976 1.76988 10.5898C2.11988 11.0598 2.50988 11.5298 2.94988 11.9998C2.51988 12.4698 2.11988 12.9398 1.76988 13.4098C0.0498806 15.7098 -0.440119 17.7198 0.399881 19.0798C1.01988 20.0998 2.30988 20.6298 4.10988 20.6298C4.70988 20.6298 5.36988 20.5698 6.07988 20.4498C7.89988 20.1398 9.93988 19.4598 12.0099 18.4698C14.0799 19.4598 16.1199 20.1398 17.9399 20.4498C18.6499 20.5698 19.3099 20.6298 19.9099 20.6298C21.7099 20.6298 22.9999 20.0998 23.6199 19.0798C24.4499 17.7198 23.9599 15.6998 22.2499 13.4098C21.8799 12.9398 21.4899 12.4698 21.0499 11.9998ZM18.0799 4.40976C18.7399 4.29976 19.3499 4.23976 19.8999 4.23976C21.3599 4.23976 22.4099 4.62976 22.8599 5.36976C23.4799 6.38976 22.9999 8.09976 21.5299 10.0598C21.2099 10.4898 20.8399 10.9298 20.4499 11.3598C18.9499 9.85976 17.0699 8.40976 14.9799 7.12976C14.3299 6.72976 13.6699 6.35976 13.0199 6.01976C14.7799 5.22976 16.5099 4.66976 18.0799 4.40976ZM19.8399 11.9998C18.3899 13.4498 16.5599 14.8698 14.5199 16.1198C13.6899 16.6298 12.8399 17.0898 12.0099 17.5098C11.1699 17.0998 10.3299 16.6298 9.49988 16.1198C7.43988 14.8698 5.60988 13.4498 4.15988 11.9998C5.60988 10.5498 7.43988 9.12976 9.47988 7.87976C10.3199 7.36976 11.1599 6.90976 11.9999 6.49976C12.8399 6.90976 13.6799 7.37976 14.5099 7.88976C16.5599 9.12976 18.3899 10.5498 19.8399 11.9998ZM2.46988 10.0698C1.00988 8.10976 0.519881 6.39976 1.13988 5.36976C1.58988 4.62976 2.63988 4.23976 4.09988 4.23976C4.64988 4.23976 5.25988 4.28976 5.91988 4.40976C7.47988 4.66976 9.20988 5.22976 10.9899 6.01976C10.3299 6.35976 9.67988 6.72976 9.02988 7.12976C6.92988 8.40976 5.05988 9.86976 3.55988 11.3598C3.15988 10.9298 2.79988 10.4998 2.46988 10.0698ZM5.91988 19.5898C3.50988 19.9998 1.76988 19.6498 1.13988 18.6298C0.519881 17.6098 0.999881 15.8998 2.46988 13.9398C2.78988 13.5098 3.15988 13.0698 3.54988 12.6398C5.04988 14.1398 6.92988 15.5898 9.01988 16.8698C9.66988 17.2698 10.3299 17.6398 10.9799 17.9798C9.21988 18.7698 7.48988 19.3298 5.91988 19.5898ZM22.8599 18.6298C22.2399 19.6498 20.4899 19.9998 18.0799 19.5898C16.5199 19.3298 14.7899 18.7698 13.0099 17.9798C13.6699 17.6398 14.3199 17.2698 14.9699 16.8698C17.0699 15.5898 18.9399 14.1298 20.4399 12.6398C20.8399 13.0698 21.1999 13.5098 21.5199 13.9398C22.9899 15.8898 23.4799 17.5998 22.8599 18.6298Z" fill="#131E4A"/>
<path d="M11.8399 13.8898C10.6299 13.8898 9.6499 12.9098 9.6499 11.6998C9.6499 10.4898 10.6299 9.50977 11.8399 9.50977C13.0499 9.50977 14.0299 10.4898 14.0299 11.6998C14.0299 12.9098 13.0499 13.8898 11.8399 13.8898ZM11.8399 10.3798C11.1099 10.3798 10.5199 10.9698 10.5199 11.6998C10.5199 12.4298 11.1099 13.0198 11.8399 13.0198C12.5699 13.0198 13.1599 12.4298 13.1599 11.6998C13.1599 10.9698 12.5699 10.3798 11.8399 10.3798Z" fill="#131E4A"/>
</g>
<defs>
<clipPath id="clip0_414_1706">
<rect width="24" height="24" fill="white"/>
</clipPath>
</defs>
</svg>
