<svg width="24" height="24" viewBox="0 0 24 24" fill="none" xmlns="http://www.w3.org/2000/svg">
<g clip-path="url(#clip0_414_1708)">
<path d="M12 24C5.38 24 0 18.62 0 12C0 5.38 5.38 0 12 0C18.62 0 24 5.38 24 12C24 18.62 18.62 24 12 24ZM12 1.23C6.06 1.23 1.23 6.06 1.23 12C1.23 17.94 6.06 22.77 12 22.77C17.94 22.77 22.77 17.94 22.77 12C22.77 6.06 17.94 1.23 12 1.23Z" fill="#131E4A"/>
<path d="M11.9999 18.3099C8.51994 18.3099 5.68994 15.4799 5.68994 11.9999C5.68994 8.51994 8.51994 5.68994 11.9999 5.68994C15.4799 5.68994 18.3099 8.51994 18.3099 11.9999C18.3099 15.4799 15.4799 18.3099 11.9999 18.3099ZM11.9999 6.91994C9.19994 6.91994 6.91994 9.19994 6.91994 11.9999C6.91994 14.7999 9.19994 17.0799 11.9899 17.0799C14.7899 17.0799 17.0699 14.7999 17.0699 11.9999C17.0799 9.19994 14.7999 6.91994 11.9999 6.91994Z" fill="#131E4A"/>
<path d="M11.9999 13.3799C11.2399 13.3799 10.6299 12.7599 10.6299 11.9999C10.6299 11.2399 11.2499 10.6299 11.9999 10.6299C12.7599 10.6299 13.3799 11.2499 13.3799 11.9999C13.3799 12.7599 12.7599 13.3799 11.9999 13.3799Z" fill="#131E4A"/>
</g>
<defs>
<clipPath id="clip0_414_1708">
<rect width="24" height="24" fill="white"/>
</clipPath>
</defs>
</svg>
