<svg width="24" height="24" viewBox="0 0 24 24" fill="none" xmlns="http://www.w3.org/2000/svg">
<g clip-path="url(#clip0_414_1705)">
<path d="M17.27 15.0798L12.49 11.7397V5.99976C12.49 5.72976 12.27 5.50977 12 5.50977C11.73 5.50977 11.51 5.72976 11.51 5.99976V11.9998C11.51 12.1598 11.59 12.3098 11.72 12.3998L16.71 15.8898C16.79 15.9498 16.89 15.9798 16.99 15.9798C17.14 15.9798 17.29 15.9098 17.39 15.7598C17.54 15.5398 17.49 15.2398 17.27 15.0798Z" fill="#131E4A"/>
<path d="M20.48 3.52002C18.21 1.25002 15.2 0 12 0C8.8 0 5.79 1.25002 3.52 3.52002C1.25 5.79002 0 8.8 0 12C0 15.2 1.25 18.21 3.52 20.48C5.79 22.75 8.8 24 12 24C15.2 24 18.21 22.75 20.48 20.48C22.75 18.21 24 15.2 24 12C24 8.8 22.75 5.79002 20.48 3.52002ZM12.49 23.01V21C12.49 20.73 12.27 20.51 12 20.51C11.73 20.51 11.51 20.73 11.51 21V23.01C5.82 22.76 1.25 18.18 1 12.5H3C3.27 12.5 3.49 12.28 3.49 12.01C3.49 11.74 3.27 11.52 3 11.52H0.99C1.24 5.83002 5.82 1.26001 11.5 1.01001V3.02002C11.5 3.29002 11.72 3.51001 11.99 3.51001C12.26 3.51001 12.48 3.29002 12.48 3.02002V1.01001C18.17 1.26001 22.74 5.84002 22.99 11.52H21C20.73 11.52 20.51 11.74 20.51 12.01C20.51 12.28 20.73 12.5 21 12.5H23.01C22.76 18.18 18.18 22.76 12.49 23.01Z" fill="#131E4A"/>
</g>
<defs>
<clipPath id="clip0_414_1705">
<rect width="24" height="24" fill="white"/>
</clipPath>
</defs>
</svg>
